<svg width="40" height="40" viewBox="0 0 40 40" fill="none" xmlns="http://www.w3.org/2000/svg">
<path d="M19.5072 0H20.4848C23.8624 0.0904 27.2176 1.028 30.1272 2.7512C34.008 5.024 37.0808 8.6416 38.6816 12.8456C39.496 14.9488 39.916 17.192 40 19.4432V20.5336C39.9 23.9136 38.9528 27.2696 37.22 30.1776C34.6912 34.4744 30.5024 37.7624 25.7168 39.1704C24.0224 39.6792 22.2608 39.9416 20.4944 40H19.5168C16.0408 39.9096 12.5896 38.9152 9.6216 37.0984C7.5112 35.816 5.6432 34.14 4.1384 32.1824C2.1712 29.6312 0.836 26.5968 0.2928 23.4216C0.124 22.4752 0.0456 21.516 0 20.5568V19.4696C0.0664 17.6016 0.3608 15.7376 0.9312 13.9552C2.32 9.5296 5.3168 5.64 9.2272 3.148C12.2792 1.18 15.8792 0.096 19.5072 0ZM11.772 11.6952C11.18 12.2704 10.8272 13.0896 10.8384 13.9168C10.8376 17.9168 10.8392 21.9176 10.8376 25.9176C10.8296 26.3144 10.848 26.7168 10.9728 27.0976C11.3344 28.3336 12.5432 29.2648 13.8368 29.2664C18.72 29.2712 23.604 29.268 28.488 29.268C28.9096 29.2984 29.3064 28.9144 29.276 28.4896C29.276 23.5 29.2752 18.5112 29.276 13.5224C29.2744 13.2104 29.3248 12.8448 29.0744 12.6064C28.7304 12.236 28.1856 12.396 27.7416 12.3648C27.7416 17.232 27.744 22.0992 27.74 26.9664C27.7552 27.3776 27.3752 27.7504 26.9656 27.7304C22.8552 27.7304 18.7456 27.7336 14.6352 27.7288C13.5216 27.7104 12.504 26.7968 12.3896 25.6832C12.2168 24.4224 13.2768 23.1576 14.5544 23.1328C18.4384 23.1232 22.3224 23.1344 26.2072 23.1272C26.2104 19.3912 26.2056 15.6552 26.2088 11.9184C26.2024 11.6928 26.2392 11.4488 26.1208 11.244C25.996 10.996 25.7288 10.8216 25.448 10.8304C21.6056 10.8272 17.764 10.8296 13.9216 10.8288C13.1272 10.8184 12.3416 11.1456 11.772 11.6952ZM14.512 24.6776C14.192 24.744 13.9424 25.0376 13.912 25.3608C13.8632 25.8088 14.2672 26.2296 14.7176 26.1976C18.2928 26.196 21.868 26.1992 25.4432 26.196C25.8192 26.2064 26.1608 25.8936 26.204 25.5232C26.2712 25.0872 25.8896 24.644 25.4456 24.6616C22.004 24.6584 18.5624 24.6616 15.1208 24.66C14.9176 24.6624 14.7128 24.6464 14.512 24.6776Z" fill="#4A154B"/>
<path d="M11.7719 11.6948C12.3415 11.1452 13.1271 10.818 13.9215 10.8284C17.7639 10.8292 21.6055 10.8268 25.4479 10.83C25.7287 10.8212 25.9959 10.9956 26.1207 11.2436C26.2391 11.4484 26.2023 11.6924 26.2087 11.918C26.2055 15.6548 26.2103 19.3908 26.2071 23.1268C22.3223 23.134 18.4383 23.1228 14.5543 23.1324C13.2767 23.1572 12.2167 24.422 12.3895 25.6828C12.5039 26.7964 13.5215 27.71 14.6351 27.7284C18.7455 27.7332 22.8551 27.73 26.9655 27.73C27.3751 27.75 27.7551 27.3772 27.7399 26.966C27.7439 22.0988 27.7415 17.2316 27.7415 12.3644C28.1855 12.3956 28.7303 12.2356 29.0743 12.606C29.3247 12.8444 29.2743 13.21 29.2759 13.522C29.2751 18.5108 29.2759 23.4996 29.2759 28.4892C29.3063 28.914 28.9095 29.298 28.4879 29.2676C23.6039 29.2676 18.7199 29.2708 13.8367 29.266C12.5431 29.2644 11.3343 28.3332 10.9727 27.0972C10.8479 26.7164 10.8295 26.314 10.8375 25.9172C10.8391 21.9172 10.8375 17.9164 10.8383 13.9164C10.8271 13.0892 11.1799 12.27 11.7719 11.6948Z" fill="white"/>
<path d="M14.5117 24.6768C14.7125 24.6456 14.9173 24.6616 15.1205 24.6592C18.5621 24.6608 22.0037 24.6576 25.4453 24.6608C25.8893 24.6432 26.2709 25.0864 26.2037 25.5224C26.1605 25.8928 25.8189 26.2056 25.4429 26.1952C21.8677 26.1984 18.2925 26.1952 14.7173 26.1968C14.2669 26.2288 13.8629 25.808 13.9117 25.36C13.9421 25.0368 14.1917 24.7432 14.5117 24.6768Z" fill="white"/>
</svg>
