<svg width="9" height="5" viewBox="0 0 9 5" fill="none" xmlns="http://www.w3.org/2000/svg">
<path d="M4.58745 4.86424L8.37478 1.07685C8.46245 0.989247 8.51074 0.872312 8.51074 0.747627C8.51074 0.622941 8.46245 0.506006 8.37478 0.418408L8.09593 0.139492C7.91423 -0.0419999 7.61892 -0.0419999 7.43749 0.139492L4.25712 3.31986L1.07322 0.135963C0.985558 0.0483653 0.868691 -3.34045e-07 0.744075 -3.39492e-07C0.61932 -3.44945e-07 0.502454 0.0483653 0.414718 0.135963L0.135941 0.414879C0.0482731 0.502546 -2.29153e-05 0.619412 -2.29207e-05 0.744097C-2.29262e-05 0.868783 0.048273 0.985718 0.135941 1.07332L3.92673 4.86424C4.01467 4.95205 4.13209 5.00028 4.25692 5C4.38222 5.00028 4.49957 4.95205 4.58745 4.86424Z" fill="black"/>
</svg>
