<svg width="23" height="24" viewBox="0 0 23 24" fill="none" xmlns="http://www.w3.org/2000/svg">
<path d="M11.4969 8.3939C9.38527 8.3939 7.66201 10.1172 7.66201 12.2288C7.66201 14.3404 9.38527 16.0637 11.4969 16.0637C13.6085 16.0637 15.3318 14.3404 15.3318 12.2288C15.3318 10.1172 13.6085 8.3939 11.4969 8.3939ZM22.9987 12.2288C22.9987 10.6407 23.0131 9.06709 22.9239 7.48192C22.8347 5.64071 22.4147 4.00664 21.0683 2.66025C19.7191 1.31099 18.0879 0.893842 16.2467 0.804659C14.6586 0.715475 13.085 0.72986 11.4998 0.72986C9.91174 0.72986 8.33808 0.715475 6.75292 0.804659C4.91171 0.893842 3.27763 1.31387 1.93125 2.66025C0.581988 4.00951 0.164838 5.64071 0.0756548 7.48192C-0.0135288 9.06996 0.000855714 10.6436 0.000855714 12.2288C0.000855714 13.814 -0.0135288 15.3905 0.0756548 16.9757C0.164838 18.8169 0.584864 20.4509 1.93125 21.7973C3.28051 23.1466 4.91171 23.5637 6.75292 23.6529C8.34096 23.7421 9.91462 23.7277 11.4998 23.7277C13.0878 23.7277 14.6615 23.7421 16.2467 23.6529C18.0879 23.5637 19.7219 23.1437 21.0683 21.7973C22.4176 20.4481 22.8347 18.8169 22.9239 16.9757C23.016 15.3905 22.9987 13.8168 22.9987 12.2288ZM11.4969 18.1293C8.23164 18.1293 5.59641 15.4941 5.59641 12.2288C5.59641 8.96352 8.23164 6.32829 11.4969 6.32829C14.7622 6.32829 17.3974 8.96352 17.3974 12.2288C17.3974 15.4941 14.7622 18.1293 11.4969 18.1293ZM17.6391 7.46466C16.8767 7.46466 16.261 6.84901 16.261 6.08663C16.261 5.32425 16.8767 4.7086 17.6391 4.7086C18.4014 4.7086 19.0171 5.32425 19.0171 6.08663C19.0173 6.26766 18.9818 6.44695 18.9127 6.61425C18.8435 6.78154 18.742 6.93354 18.614 7.06155C18.486 7.18956 18.334 7.29105 18.1667 7.36023C17.9994 7.4294 17.8201 7.46489 17.6391 7.46466Z" fill="#4A154B"/>
</svg>
