<svg width="23" height="24" viewBox="0 0 23 24" fill="none" xmlns="http://www.w3.org/2000/svg">
<path d="M21.2799 6.03296C17.8394 0.728829 10.815 -0.848076 5.36752 2.44909C0.0633816 5.74625 -1.65688 12.914 1.78364 18.2181L2.07035 18.6482L0.923512 22.9488L5.22416 21.802L5.65423 22.0887C7.51784 23.0922 9.52481 23.6656 11.5318 23.6656C13.6821 23.6656 15.8324 23.0922 17.696 21.9454C23.0002 18.5048 24.5771 11.4805 21.2799 6.03296ZM18.2695 17.0713C17.696 17.9314 16.9793 18.5048 15.9758 18.6482C15.4024 18.6482 14.6856 18.9349 11.8185 17.7881C9.38145 16.6412 7.37449 14.7776 5.94094 12.6273C5.08081 11.6238 4.65074 10.3336 4.50739 9.04342C4.50739 7.89658 4.93745 6.89309 5.65423 6.17632C5.94094 5.88961 6.22765 5.74625 6.51436 5.74625H7.23113C7.51784 5.74625 7.80455 5.74625 7.94791 6.31967C8.23462 7.03645 8.95139 8.75671 8.95139 8.90006C9.09474 9.04342 9.09474 9.33013 8.95139 9.47348C9.09474 9.76019 8.95139 10.0469 8.80803 10.1903C8.66468 10.3336 8.52133 10.6203 8.37797 10.7637C8.09126 10.907 7.94791 11.1937 8.09126 11.4805C8.66468 12.3406 9.38145 13.2007 10.0982 13.9175C10.9584 14.6343 11.8185 15.2077 12.822 15.6377C13.1087 15.7811 13.3954 15.7811 13.5387 15.4944C13.6821 15.2077 14.3989 14.4909 14.6856 14.2042C14.9723 13.9175 15.1157 13.9175 15.4024 14.0608L17.696 15.2077C17.9828 15.351 18.2695 15.4944 18.4128 15.6377C18.5562 16.0678 18.5562 16.6412 18.2695 17.0713Z" fill="#4A154B"/>
</svg>
