<svg width="29" height="21" viewBox="0 0 29 21" fill="none" xmlns="http://www.w3.org/2000/svg">
<path d="M27.9751 3.85321C27.8125 3.24823 27.4936 2.69653 27.0504 2.25332C26.6072 1.81011 26.0552 1.49093 25.4496 1.32773C23.2207 0.729004 14.2857 0.729004 14.2857 0.729004C14.2857 0.729004 5.35077 0.729004 3.12181 1.32455C2.51601 1.48722 1.96373 1.80622 1.52043 2.24951C1.07713 2.69281 0.758416 3.24479 0.596301 3.85002C-1.21642e-07 6.07932 0 10.729 0 10.729C0 10.729 -1.21642e-07 15.3787 0.596301 17.6048C0.924745 18.8341 1.89413 19.8023 3.12181 20.1303C5.35077 20.729 14.2857 20.729 14.2857 20.729C14.2857 20.729 23.2207 20.729 25.4496 20.1303C26.6805 19.8023 27.6467 18.8341 27.9751 17.6048C28.5714 15.3787 28.5714 10.729 28.5714 10.729C28.5714 10.729 28.5714 6.07932 27.9751 3.85321ZM11.4477 14.9965V6.46149L18.8457 10.6972L11.4477 14.9965Z" fill="#4A154B"/>
</svg>
