<svg width="20" height="18" viewBox="0 0 20 18" fill="none" xmlns="http://www.w3.org/2000/svg">
<path d="M15.4721 13.7023C14.3398 15.2608 12.6831 16.3584 10.8064 16.7934C8.92972 17.2284 6.95909 16.9716 5.25656 16.0701C3.55404 15.1687 2.23397 13.6832 1.53889 11.8865C0.843806 10.0898 0.820394 8.10267 1.47295 6.29011C2.12551 4.47756 3.41021 2.96135 5.09103 2.02005C6.77184 1.07875 8.73588 0.775575 10.6223 1.16623C12.5087 1.55689 14.1908 2.61514 15.3596 4.14656C16.5283 5.67797 17.1052 7.5797 16.9842 9.50234M16.9842 9.50234L18.4842 8.00234M16.9842 9.50234L15.4842 8.00234" stroke="#8049C0" stroke-width="1.5" stroke-linecap="round" stroke-linejoin="round"/>
<path d="M9 5V9L12 12" stroke="#8049C0" stroke-width="1.5" stroke-linecap="round" stroke-linejoin="round"/>
</svg>
